name C:\Users\r0593348\3dpredictsim\Results\Batchsim_tmt_linear\Pog_s1_tmt_bCst_d00_k1000_ig24_pas.mot
datacolumns 128
datarows 4
range 0.00000000 0.03316199
endheader
time	pelvis_tilt	pelvis_list	pelvis_rotation	pelvis_tx	pelvis_ty	pelvis_tz	hip_flexion_l	hip_adduction_l	hip_rotation_l	hip_flexion_r	hip_adduction_r	hip_rotation_r	knee_angle_l	knee_angle_r	ankle_angle_l	ankle_angle_r	subtalar_angle_l	subtalar_angle_r	tmt_angle_l	tmt_angle_r	mtp_angle_l	mtp_angle_r	lumbar_extension	lumbar_bending	lumbar_rotation	arm_flex_l	arm_add_l	arm_rot_l	arm_flex_r	arm_add_r	arm_rot_r	elbow_flex_l	elbow_flex_r	pro_sup_l	pro_sup_r	glut_med1_l/activation	glut_med2_l/activation	glut_med3_l/activation	glut_min1_l/activation	glut_min2_l/activation	glut_min3_l/activation	semimem_l/activation	semiten_l/activation	bifemlh_l/activation	bifemsh_l/activation	sar_l/activation	add_long_l/activation	add_brev_l/activation	add_mag1_l/activation	add_mag2_l/activation	add_mag3_l/activation	tfl_l/activation	pect_l/activation	grac_l/activation	glut_max1_l/activation	glut_max2_l/activation	glut_max3_l/activation	iliacus_l/activation	psoas_l/activation	quad_fem_l/activation	gem_l/activation	peri_l/activation	rect_fem_l/activation	vas_med_l/activation	vas_int_l/activation	vas_lat_l/activation	med_gas_l/activation	lat_gas_l/activation	soleus_l/activation	tib_post_l/activation	flex_dig_l/activation	flex_hal_l/activation	tib_ant_l/activation	per_brev_l/activation	per_long_l/activation	per_tert_l/activation	ext_dig_l/activation	ext_hal_l/activation	ercspn_l/activation	intobl_l/activation	extobl_l/activation	glut_med1_r/activation	glut_med2_r/activation	glut_med3_r/activation	glut_min1_r/activation	glut_min2_r/activation	glut_min3_r/activation	semimem_r/activation	semiten_r/activation	bifemlh_r/activation	bifemsh_r/activation	sar_r/activation	add_long_r/activation	add_brev_r/activation	add_mag1_r/activation	add_mag2_r/activation	add_mag3_r/activation	tfl_r/activation	pect_r/activation	grac_r/activation	glut_max1_r/activation	glut_max2_r/activation	glut_max3_r/activation	iliacus_r/activation	psoas_r/activation	quad_fem_r/activation	gem_r/activation	peri_r/activation	rect_fem_r/activation	vas_med_r/activation	vas_int_r/activation	vas_lat_r/activation	med_gas_r/activation	lat_gas_r/activation	soleus_r/activation	tib_post_r/activation	flex_dig_r/activation	flex_hal_r/activation	tib_ant_r/activation	per_brev_r/activation	per_long_r/activation	per_tert_r/activation	ext_dig_r/activation	ext_hal_r/activation	ercspn_r/activation	intobl_r/activation	extobl_r/activation	
          0.00000000	         -2.92431538	         -2.42433892	          5.94926286	          0.00000000	          0.85564079	         -0.00311841	        -18.38802091	         -2.05979388	          7.89888275	         32.10513057	          3.31408051	         -2.84885240	         -8.31297223	        -15.86825014	         -0.11083220	          5.70759756	         11.80604822	         -2.91614924	          1.01974550	          0.03053694	         22.85778336	         -0.11145414	         -2.24634605	          1.06469107	         -1.98809175	          7.48371163	        -13.47371562	         17.24522205	         -9.61119528	        -13.59766938	          6.27639746	         39.96510394	         14.68922520	         86.51662706	         86.51662706	          0.25307075	          0.09562883	          0.05475799	          0.32164033	          0.20280631	          0.09834734	          0.05000127	          0.05000019	          0.05000014	          0.07753782	          0.10414202	          0.12795429	          0.05000122	          0.05000067	          0.05000119	          0.05000089	          0.31625819	          0.05786114	          0.05000060	          0.05000249	          0.05000170	          0.05000121	          0.37312962	          0.61170434	          0.05000019	          0.05000049	          0.05000012	          0.21869730	          0.12896191	          0.05019343	          0.05786679	          0.30036827	          0.40646080	          0.27406573	          0.25359466	          0.27727678	          0.35120689	          0.05000001	          0.06787296	          0.17933361	          0.05000009	          0.05000002	          0.05000008	          0.05000001	          0.05000002	          0.05000003	          0.05133146	          0.05000057	          0.05000069	          0.05000062	          0.05000058	          0.05000124	          0.05921127	          0.05921085	          0.27957553	          0.05000026	          0.05000044	          0.11644537	          0.20118276	          0.15235138	          0.17291207	          0.12228994	          0.05000089	          0.05052774	          0.05921164	          0.05000138	          0.06891803	          0.12325334	          0.05671775	          0.05891863	          0.25620148	          0.05833284	          0.05902052	          0.05611075	          0.15813087	          0.15937595	          0.13425804	          0.05921137	          0.05000102	          0.05921165	          0.05000005	          0.05000091	          0.05000365	          0.54697251	          0.37717402	          0.21295917	          0.31646504	          0.59053464	          0.26684803	          0.06230287	          0.09252187	          0.09431918	
          0.01105400	         -2.91349997	         -2.53212254	          6.19855137	          0.01700203	          0.85451967	         -0.00289021	        -18.08067850	         -2.37100278	          7.70452976	         31.43860076	          3.75491684	         -2.65311862	        -10.59866170	        -15.74304213	         -1.11657107	          5.15950457	         12.91655278	         -3.43191481	          0.95156451	          0.04145103	         23.86016716	         -0.10347394	         -2.02345901	          1.31543902	         -2.07947603	          7.20401085	        -13.50220792	         17.44031082	        -10.74761445	        -13.59472755	          6.08263975	         41.19150883	         14.61257786	         86.51662706	         86.51662706	          0.21370014	          0.08075170	          0.05895087	          0.27160229	          0.17125541	          0.08304730	          0.05000190	          0.05000019	          0.05000025	          0.06547514	          0.08794061	          0.20677842	          0.16979454	          0.07012307	          0.05001995	          0.05000235	          0.26705753	          0.10882139	          0.05000604	          0.05000146	          0.05000099	          0.05000094	          0.31508122	          0.54933554	          0.05000127	          0.05921338	          0.05921178	          0.18467420	          0.13790913	          0.13790931	          0.13790916	          0.25363944	          0.34322697	          0.23142884	          0.21414254	          0.23414051	          0.29656913	          0.05000001	          0.05731389	          0.15143446	          0.05000006	          0.05000001	          0.05000008	          0.06126470	          0.07012040	          0.05000004	          0.05000003	          0.05000011	          0.08849855	          0.05000009	          0.05000013	          0.05000012	          0.05000003	          0.05000005	          0.23942447	          0.05000006	          0.05000095	          0.09833002	          0.16988464	          0.33972949	          0.24045677	          0.11108359	          0.05000014	          0.05000187	          0.05000041	          0.05921164	          0.05923792	          0.14750088	          0.05000007	          0.05000025	          0.57177467	          0.13786893	          0.10969853	          0.07012042	          0.24508632	          0.24504372	          0.20860342	          0.05000000	          0.05000001	          0.05000000	          0.05000019	          0.07011837	          0.05000066	          0.64171135	          0.31849661	          0.21624866	          0.53027728	          0.62643573	          0.27574045	          0.05261031	          0.07812808	          0.07964578	
          0.02210799	         -2.89807018	         -2.64046320	          6.41948005	          0.03426390	          0.85333281	         -0.00267737	        -17.68022849	         -2.66611583	          7.49679693	         30.61376370	          4.12397343	         -2.37094313	        -13.03674502	        -16.09277448	         -2.28940795	          4.63043911	         13.95417856	         -3.98013854	          0.86503507	         -0.03522401	         24.63645736	         -0.15709795	         -1.78149069	          1.57021987	         -2.15944888	          6.83825472	        -13.53229904	         17.56145618	        -11.87920425	        -13.59698903	          5.95168735	         42.39242525	         14.54641259	         86.51662706	         86.51662706	          0.31445555	          0.06818903	          0.05000018	          0.22934903	          0.14461295	          0.07012751	          0.05000139	          0.05000020	          0.05000020	          0.05528908	          0.07425967	          0.17929882	          0.26692610	          0.05921447	          0.05495447	          0.05000215	          0.22551194	          0.09189541	          0.05000287	          0.05001709	          0.05001071	          0.05001237	          0.26606350	          0.49817854	          0.05654919	          0.05000200	          0.05000014	          0.15594411	          0.11645446	          0.11645459	          0.11645444	          0.21418030	          0.28983055	          0.19542504	          0.18082803	          0.19771493	          0.25043140	          0.05000010	          0.05000036	          0.18530275	          0.05000008	          0.11611773	          0.05000020	          0.07650784	          0.05921165	          0.05000007	          0.30359300	          0.27953545	          0.33664366	          0.05000085	          0.05000040	          0.15087856	          0.09045443	          0.10106675	          0.20881362	          0.05000026	          0.05000061	          0.08303754	          0.20187504	          0.28687732	          0.20376667	          0.15729675	          0.05000025	          0.07011990	          0.14747772	          0.05000012	          0.05002221	          0.12455439	          0.05337444	          0.05000034	          0.48282269	          0.11642049	          0.23091884	          0.05921167	          0.20695787	          0.20692193	          0.17615067	          0.05921168	          0.05921168	          0.05921166	          0.05000008	          0.05921033	          0.05921156	          0.54187928	          0.41551694	          0.20282694	          0.44778183	          0.64075755	          0.23284309	          0.05829461	          0.08303902	          0.06725515	
          0.03316199	         -2.88002842	         -2.74552905	          6.60592001	          0.05157106	          0.85210635	         -0.00244990	        -17.16052037	         -2.93775685	          7.28591794	         29.66439087	          4.45133268	         -2.07133284	        -15.65105518	        -16.46828864	         -3.52850503	          4.33794354	         14.90236587	         -4.55291840	          0.71829503	         -0.01822662	         24.98939002	         -0.16710802	         -1.54056553	          1.82278997	         -2.22887202	          6.42382432	        -13.56714868	         17.62682177	        -12.95075499	        -13.60196521	          5.90354255	         43.54120472	         14.45039185	         86.51662706	         86.51662706	          0.26553521	          0.05758076	          0.05000002	          0.20602758	          0.12211530	          0.05921768	          0.05000157	          0.05000013	          0.05000013	          0.05000007	          0.06270714	          0.19236892	          0.22540066	          0.05000256	          0.05000065	          0.05000211	          0.19454058	          0.07759965	          0.05000022	          0.05000049	          0.05000031	          0.05000019	          0.22467155	          0.43765190	          0.05000003	          0.05000019	          0.05000008	          0.13168362	          0.09833750	          0.09833759	          0.09833747	          0.18085989	          0.24474110	          0.16502242	          0.15269632	          0.16695615	          0.21147142	          0.16915931	          0.11171569	          0.15647494	          0.32650406	          0.23924713	          0.13746637	          0.10681241	          0.05000000	          0.05000002	          0.39803780	          0.42897358	          0.48087459	          0.27334977	          0.23367650	          0.32873463	          0.08224234	          0.12585298	          0.17632813	          0.07012063	          0.05000050	          0.07011928	          0.17046901	          0.24224750	          0.22688595	          0.17824028	          0.05000015	          0.05921161	          0.12453541	          0.26424887	          0.19737685	          0.16973310	          0.05000008	          0.05000008	          0.40770914	          0.09830889	          0.19553324	          0.05000003	          0.20710519	          0.25251599	          0.19615999	          0.05000003	          0.05000004	          0.05000000	          0.05000000	          0.05000010	          0.05000008	          0.69817044	          0.35087431	          0.17127285	          0.68207264	          0.68862835	          0.40541913	          0.08495423	          0.07012052	          0.05679216	
